<mxfile host="app.diagrams.net" agent="Mozilla/5.0 (Windows NT 10.0; Win64; x64) AppleWebKit/537.36 (KHTML, like Gecko) Chrome/137.0.0.0 Safari/537.36" version="27.1.6">
  <diagram name="Page-1" id="pN29pJ1shD26M9g8WAIw">
    <mxGraphModel dx="2037" dy="1110" grid="1" gridSize="10" guides="1" tooltips="1" connect="1" arrows="1" fold="1" page="1" pageScale="1" pageWidth="827" pageHeight="1169" math="0" shadow="0">
      <root>
        <mxCell id="0" />
        <mxCell id="1" parent="0" />
        <mxCell id="G8mqBr1Dfq_JToQdKp_R-137" style="edgeStyle=orthogonalEdgeStyle;rounded=0;orthogonalLoop=1;jettySize=auto;html=1;exitX=0.5;exitY=1;exitDx=0;exitDy=0;entryX=0.5;entryY=0;entryDx=0;entryDy=0;" edge="1" parent="1" source="G8mqBr1Dfq_JToQdKp_R-134" target="G8mqBr1Dfq_JToQdKp_R-136">
          <mxGeometry relative="1" as="geometry" />
        </mxCell>
        <mxCell id="G8mqBr1Dfq_JToQdKp_R-134" value="" style="ellipse;whiteSpace=wrap;html=1;aspect=fixed;" vertex="1" parent="1">
          <mxGeometry x="410" y="70" width="80" height="80" as="geometry" />
        </mxCell>
        <mxCell id="G8mqBr1Dfq_JToQdKp_R-135" value="Start Game" style="text;html=1;align=center;verticalAlign=middle;resizable=0;points=[];autosize=1;strokeColor=none;fillColor=none;" vertex="1" parent="1">
          <mxGeometry x="410" y="40" width="80" height="30" as="geometry" />
        </mxCell>
        <mxCell id="G8mqBr1Dfq_JToQdKp_R-138" style="edgeStyle=orthogonalEdgeStyle;rounded=0;orthogonalLoop=1;jettySize=auto;html=1;exitX=0.5;exitY=1;exitDx=0;exitDy=0;" edge="1" parent="1" source="G8mqBr1Dfq_JToQdKp_R-136">
          <mxGeometry relative="1" as="geometry">
            <mxPoint x="450" y="290" as="targetPoint" />
          </mxGeometry>
        </mxCell>
        <mxCell id="G8mqBr1Dfq_JToQdKp_R-139" value="Did the player press play" style="edgeLabel;html=1;align=center;verticalAlign=middle;resizable=0;points=[];" vertex="1" connectable="0" parent="G8mqBr1Dfq_JToQdKp_R-138">
          <mxGeometry x="-0.1288" y="-1" relative="1" as="geometry">
            <mxPoint as="offset" />
          </mxGeometry>
        </mxCell>
        <mxCell id="G8mqBr1Dfq_JToQdKp_R-180" style="edgeStyle=orthogonalEdgeStyle;rounded=0;orthogonalLoop=1;jettySize=auto;html=1;exitX=0;exitY=0.5;exitDx=0;exitDy=0;entryX=0.5;entryY=0;entryDx=0;entryDy=0;" edge="1" parent="1" source="G8mqBr1Dfq_JToQdKp_R-136" target="G8mqBr1Dfq_JToQdKp_R-179">
          <mxGeometry relative="1" as="geometry" />
        </mxCell>
        <mxCell id="G8mqBr1Dfq_JToQdKp_R-189" value="Has the player&lt;div&gt;pressed the quit button?&lt;/div&gt;" style="edgeLabel;html=1;align=center;verticalAlign=middle;resizable=0;points=[];" vertex="1" connectable="0" parent="G8mqBr1Dfq_JToQdKp_R-180">
          <mxGeometry x="0.8011" y="-4" relative="1" as="geometry">
            <mxPoint as="offset" />
          </mxGeometry>
        </mxCell>
        <mxCell id="G8mqBr1Dfq_JToQdKp_R-136" value="Main Menu" style="rounded=0;whiteSpace=wrap;html=1;" vertex="1" parent="1">
          <mxGeometry x="390" y="180" width="120" height="60" as="geometry" />
        </mxCell>
        <mxCell id="G8mqBr1Dfq_JToQdKp_R-144" style="edgeStyle=orthogonalEdgeStyle;rounded=0;orthogonalLoop=1;jettySize=auto;html=1;exitX=0.5;exitY=1;exitDx=0;exitDy=0;" edge="1" parent="1" source="G8mqBr1Dfq_JToQdKp_R-140" target="G8mqBr1Dfq_JToQdKp_R-145">
          <mxGeometry relative="1" as="geometry">
            <mxPoint x="450" y="450" as="targetPoint" />
          </mxGeometry>
        </mxCell>
        <mxCell id="G8mqBr1Dfq_JToQdKp_R-146" value="Yes" style="edgeLabel;html=1;align=center;verticalAlign=middle;resizable=0;points=[];" vertex="1" connectable="0" parent="G8mqBr1Dfq_JToQdKp_R-144">
          <mxGeometry x="-0.3333" y="-3" relative="1" as="geometry">
            <mxPoint as="offset" />
          </mxGeometry>
        </mxCell>
        <mxCell id="G8mqBr1Dfq_JToQdKp_R-140" value="" style="rhombus;whiteSpace=wrap;html=1;" vertex="1" parent="1">
          <mxGeometry x="390" y="290" width="120" height="110" as="geometry" />
        </mxCell>
        <mxCell id="G8mqBr1Dfq_JToQdKp_R-147" style="edgeStyle=orthogonalEdgeStyle;rounded=0;orthogonalLoop=1;jettySize=auto;html=1;exitX=0.5;exitY=1;exitDx=0;exitDy=0;" edge="1" parent="1" source="G8mqBr1Dfq_JToQdKp_R-145">
          <mxGeometry relative="1" as="geometry">
            <mxPoint x="450" y="570" as="targetPoint" />
          </mxGeometry>
        </mxCell>
        <mxCell id="G8mqBr1Dfq_JToQdKp_R-148" value="Has the player died?" style="edgeLabel;html=1;align=center;verticalAlign=middle;resizable=0;points=[];" vertex="1" connectable="0" parent="G8mqBr1Dfq_JToQdKp_R-147">
          <mxGeometry x="-0.0496" y="-1" relative="1" as="geometry">
            <mxPoint as="offset" />
          </mxGeometry>
        </mxCell>
        <mxCell id="G8mqBr1Dfq_JToQdKp_R-188" style="edgeStyle=orthogonalEdgeStyle;rounded=0;orthogonalLoop=1;jettySize=auto;html=1;exitX=0;exitY=0.75;exitDx=0;exitDy=0;entryX=0.5;entryY=1;entryDx=0;entryDy=0;" edge="1" parent="1" source="G8mqBr1Dfq_JToQdKp_R-145" target="G8mqBr1Dfq_JToQdKp_R-179">
          <mxGeometry relative="1" as="geometry">
            <Array as="points">
              <mxPoint x="335" y="505" />
              <mxPoint x="335" y="610" />
              <mxPoint x="230" y="610" />
            </Array>
          </mxGeometry>
        </mxCell>
        <mxCell id="G8mqBr1Dfq_JToQdKp_R-190" value="Has the player&lt;div&gt;pressed the quit button?&lt;/div&gt;" style="edgeLabel;html=1;align=center;verticalAlign=middle;resizable=0;points=[];" vertex="1" connectable="0" parent="G8mqBr1Dfq_JToQdKp_R-188">
          <mxGeometry x="0.8294" relative="1" as="geometry">
            <mxPoint y="-1" as="offset" />
          </mxGeometry>
        </mxCell>
        <mxCell id="G8mqBr1Dfq_JToQdKp_R-145" value="Level" style="rounded=0;whiteSpace=wrap;html=1;" vertex="1" parent="1">
          <mxGeometry x="390" y="460" width="120" height="60" as="geometry" />
        </mxCell>
        <mxCell id="G8mqBr1Dfq_JToQdKp_R-158" style="edgeStyle=orthogonalEdgeStyle;rounded=0;orthogonalLoop=1;jettySize=auto;html=1;exitX=1;exitY=0.5;exitDx=0;exitDy=0;entryX=0.5;entryY=1;entryDx=0;entryDy=0;" edge="1" parent="1" source="G8mqBr1Dfq_JToQdKp_R-149" target="G8mqBr1Dfq_JToQdKp_R-157">
          <mxGeometry relative="1" as="geometry" />
        </mxCell>
        <mxCell id="G8mqBr1Dfq_JToQdKp_R-159" value="Yes" style="edgeLabel;html=1;align=center;verticalAlign=middle;resizable=0;points=[];" vertex="1" connectable="0" parent="G8mqBr1Dfq_JToQdKp_R-158">
          <mxGeometry x="-0.4703" y="1" relative="1" as="geometry">
            <mxPoint as="offset" />
          </mxGeometry>
        </mxCell>
        <mxCell id="G8mqBr1Dfq_JToQdKp_R-164" value="Does the player have&lt;div&gt;any lives left?&lt;/div&gt;" style="edgeLabel;html=1;align=center;verticalAlign=middle;resizable=0;points=[];" vertex="1" connectable="0" parent="G8mqBr1Dfq_JToQdKp_R-158">
          <mxGeometry x="0.7405" y="1" relative="1" as="geometry">
            <mxPoint as="offset" />
          </mxGeometry>
        </mxCell>
        <mxCell id="G8mqBr1Dfq_JToQdKp_R-165" style="edgeStyle=orthogonalEdgeStyle;rounded=0;orthogonalLoop=1;jettySize=auto;html=1;exitX=0.5;exitY=1;exitDx=0;exitDy=0;" edge="1" parent="1" source="G8mqBr1Dfq_JToQdKp_R-149">
          <mxGeometry relative="1" as="geometry">
            <mxPoint x="450" y="790" as="targetPoint" />
          </mxGeometry>
        </mxCell>
        <mxCell id="G8mqBr1Dfq_JToQdKp_R-166" value="No" style="edgeLabel;html=1;align=center;verticalAlign=middle;resizable=0;points=[];" vertex="1" connectable="0" parent="G8mqBr1Dfq_JToQdKp_R-165">
          <mxGeometry x="-0.1288" y="-1" relative="1" as="geometry">
            <mxPoint x="1" y="-28" as="offset" />
          </mxGeometry>
        </mxCell>
        <mxCell id="G8mqBr1Dfq_JToQdKp_R-168" value="Has the player completed&lt;div&gt;the level?&lt;/div&gt;" style="edgeLabel;html=1;align=center;verticalAlign=middle;resizable=0;points=[];" vertex="1" connectable="0" parent="G8mqBr1Dfq_JToQdKp_R-165">
          <mxGeometry x="0.4567" y="2" relative="1" as="geometry">
            <mxPoint as="offset" />
          </mxGeometry>
        </mxCell>
        <mxCell id="G8mqBr1Dfq_JToQdKp_R-149" value="" style="rhombus;whiteSpace=wrap;html=1;" vertex="1" parent="1">
          <mxGeometry x="390" y="570" width="120" height="110" as="geometry" />
        </mxCell>
        <mxCell id="G8mqBr1Dfq_JToQdKp_R-160" style="edgeStyle=orthogonalEdgeStyle;rounded=0;orthogonalLoop=1;jettySize=auto;html=1;exitX=0;exitY=0.5;exitDx=0;exitDy=0;entryX=1;entryY=0.5;entryDx=0;entryDy=0;" edge="1" parent="1" source="G8mqBr1Dfq_JToQdKp_R-157" target="G8mqBr1Dfq_JToQdKp_R-145">
          <mxGeometry relative="1" as="geometry" />
        </mxCell>
        <mxCell id="G8mqBr1Dfq_JToQdKp_R-161" value="Yes" style="edgeLabel;html=1;align=center;verticalAlign=middle;resizable=0;points=[];" vertex="1" connectable="0" parent="G8mqBr1Dfq_JToQdKp_R-160">
          <mxGeometry x="-0.08" relative="1" as="geometry">
            <mxPoint as="offset" />
          </mxGeometry>
        </mxCell>
        <mxCell id="G8mqBr1Dfq_JToQdKp_R-162" style="edgeStyle=orthogonalEdgeStyle;rounded=0;orthogonalLoop=1;jettySize=auto;html=1;exitX=0.5;exitY=0;exitDx=0;exitDy=0;entryX=1;entryY=0.5;entryDx=0;entryDy=0;" edge="1" parent="1" source="G8mqBr1Dfq_JToQdKp_R-157" target="G8mqBr1Dfq_JToQdKp_R-136">
          <mxGeometry relative="1" as="geometry">
            <Array as="points">
              <mxPoint x="610" y="445" />
              <mxPoint x="610" y="210" />
            </Array>
          </mxGeometry>
        </mxCell>
        <mxCell id="G8mqBr1Dfq_JToQdKp_R-163" value="No" style="edgeLabel;html=1;align=center;verticalAlign=middle;resizable=0;points=[];" vertex="1" connectable="0" parent="G8mqBr1Dfq_JToQdKp_R-162">
          <mxGeometry x="-0.7176" y="1" relative="1" as="geometry">
            <mxPoint as="offset" />
          </mxGeometry>
        </mxCell>
        <mxCell id="G8mqBr1Dfq_JToQdKp_R-157" value="" style="rhombus;whiteSpace=wrap;html=1;" vertex="1" parent="1">
          <mxGeometry x="560" y="445" width="90" height="90" as="geometry" />
        </mxCell>
        <mxCell id="G8mqBr1Dfq_JToQdKp_R-176" style="edgeStyle=orthogonalEdgeStyle;rounded=0;orthogonalLoop=1;jettySize=auto;html=1;exitX=0.5;exitY=1;exitDx=0;exitDy=0;entryX=0;entryY=0.5;entryDx=0;entryDy=0;" edge="1" parent="1" source="G8mqBr1Dfq_JToQdKp_R-169" target="G8mqBr1Dfq_JToQdKp_R-145">
          <mxGeometry relative="1" as="geometry">
            <Array as="points">
              <mxPoint x="450" y="960" />
              <mxPoint x="310" y="960" />
              <mxPoint x="310" y="490" />
            </Array>
          </mxGeometry>
        </mxCell>
        <mxCell id="G8mqBr1Dfq_JToQdKp_R-177" value="Yes" style="edgeLabel;html=1;align=center;verticalAlign=middle;resizable=0;points=[];" vertex="1" connectable="0" parent="G8mqBr1Dfq_JToQdKp_R-176">
          <mxGeometry x="-0.9429" y="-3" relative="1" as="geometry">
            <mxPoint as="offset" />
          </mxGeometry>
        </mxCell>
        <mxCell id="G8mqBr1Dfq_JToQdKp_R-169" value="" style="rhombus;whiteSpace=wrap;html=1;" vertex="1" parent="1">
          <mxGeometry x="390" y="790" width="120" height="110" as="geometry" />
        </mxCell>
        <mxCell id="G8mqBr1Dfq_JToQdKp_R-193" style="edgeStyle=orthogonalEdgeStyle;rounded=0;orthogonalLoop=1;jettySize=auto;html=1;exitX=0;exitY=0.5;exitDx=0;exitDy=0;entryX=1;entryY=0.5;entryDx=0;entryDy=0;" edge="1" parent="1" source="G8mqBr1Dfq_JToQdKp_R-179" target="G8mqBr1Dfq_JToQdKp_R-184">
          <mxGeometry relative="1" as="geometry" />
        </mxCell>
        <mxCell id="G8mqBr1Dfq_JToQdKp_R-194" value="Yes" style="edgeLabel;html=1;align=center;verticalAlign=middle;resizable=0;points=[];" vertex="1" connectable="0" parent="G8mqBr1Dfq_JToQdKp_R-193">
          <mxGeometry x="-0.1476" y="-1" relative="1" as="geometry">
            <mxPoint as="offset" />
          </mxGeometry>
        </mxCell>
        <mxCell id="G8mqBr1Dfq_JToQdKp_R-179" value="" style="rhombus;whiteSpace=wrap;html=1;" vertex="1" parent="1">
          <mxGeometry x="180" y="445" width="100" height="95" as="geometry" />
        </mxCell>
        <mxCell id="G8mqBr1Dfq_JToQdKp_R-192" style="edgeStyle=orthogonalEdgeStyle;rounded=0;orthogonalLoop=1;jettySize=auto;html=1;exitX=1;exitY=0.5;exitDx=0;exitDy=0;entryX=1;entryY=0.5;entryDx=0;entryDy=0;" edge="1" parent="1" source="G8mqBr1Dfq_JToQdKp_R-184" target="G8mqBr1Dfq_JToQdKp_R-185">
          <mxGeometry relative="1" as="geometry" />
        </mxCell>
        <mxCell id="G8mqBr1Dfq_JToQdKp_R-184" value="" style="ellipse;whiteSpace=wrap;html=1;aspect=fixed;" vertex="1" parent="1">
          <mxGeometry x="40" y="452.5" width="80" height="80" as="geometry" />
        </mxCell>
        <mxCell id="G8mqBr1Dfq_JToQdKp_R-185" value="" style="ellipse;whiteSpace=wrap;html=1;aspect=fixed;fillStyle=solid;fillColor=#000000;" vertex="1" parent="1">
          <mxGeometry x="55" y="467.5" width="50" height="50" as="geometry" />
        </mxCell>
        <mxCell id="G8mqBr1Dfq_JToQdKp_R-195" value="Quit Game" style="text;html=1;align=center;verticalAlign=middle;resizable=0;points=[];autosize=1;strokeColor=none;fillColor=none;" vertex="1" parent="1">
          <mxGeometry x="40" y="418" width="80" height="30" as="geometry" />
        </mxCell>
      </root>
    </mxGraphModel>
  </diagram>
</mxfile>
